<svg xmlns="http://www.w3.org/2000/svg" width="504" height="504" viewBox="0 0 504 504"><defs><style>.b7bae6ae-5c6c-48d9-9982-e4dcd7cbc230{fill:#fff;}.e8c7b4c5-0083-4788-a4ab-2678109e8a9c,.e9b7add7-3874-4887-95c2-4b70fbd60f83{fill:#1d1d1b;}.e9b7add7-3874-4887-95c2-4b70fbd60f83{font-size:39.15px;font-family:Verdana;}</style></defs><g id="a9be74a1-d1f1-4dbe-ac63-66b2fba70e49" data-name="Capa 2"><g id="a96a8525-197c-4868-af8f-b3daa58249b5" data-name="Capa 1"><circle class="b7bae6ae-5c6c-48d9-9982-e4dcd7cbc230" cx="252" cy="252" r="252"/><circle class="e8c7b4c5-0083-4788-a4ab-2678109e8a9c" cx="251.29" cy="251.39" r="225"/><circle class="b7bae6ae-5c6c-48d9-9982-e4dcd7cbc230" cx="250.5" cy="252" r="200"/><text class="e9b7add7-3874-4887-95c2-4b70fbd60f83" transform="translate(132.21 387.81)">SINCE 1998</text><rect class="e8c7b4c5-0083-4788-a4ab-2678109e8a9c" x="124.57" y="292.43" width="252.85" height="16.45" rx="3.25"/><path class="e8c7b4c5-0083-4788-a4ab-2678109e8a9c" d="M127.27,150.54c53.77-14.17,113.08-30.11,122.46-32.63a5,5,0,0,1,2.55,0c9.59,2.54,71.2,18.89,122.47,32.63,4.23,1.14,3.18,6-1.29,6H128.54C124.06,156.54,123,151.66,127.27,150.54Z"/><rect class="e8c7b4c5-0083-4788-a4ab-2678109e8a9c" x="107" y="317.55" width="288" height="16.45" rx="3.25"/><rect class="e8c7b4c5-0083-4788-a4ab-2678109e8a9c" x="138.24" y="168.71" width="41" height="109.52"/><rect class="e8c7b4c5-0083-4788-a4ab-2678109e8a9c" x="199.75" y="168.71" width="41" height="109.52"/><rect class="e8c7b4c5-0083-4788-a4ab-2678109e8a9c" x="261.25" y="168.71" width="41" height="109.52"/><rect class="e8c7b4c5-0083-4788-a4ab-2678109e8a9c" x="322.76" y="168.71" width="41" height="109.52"/></g></g></svg>