<svg xmlns="http://www.w3.org/2000/svg" width="504" height="504" viewBox="0 0 504 504"><defs><style>.aa23e30f-af8d-444a-8bb1-26e8cf293258{fill:#1d1d1b;}.e6f8e162-8e29-4fb9-adb8-4fc764cdd309,.fe294336-28c8-46b0-b0c8-1bd7b8859598{fill:#fff;}.e6f8e162-8e29-4fb9-adb8-4fc764cdd309{font-size:39.15px;font-family:Verdana;}</style></defs><g id="b9e5ca33-f6b2-4c6b-999b-21eaa0ac0245" data-name="Capa 2"><g id="e3de79e1-7691-490a-a008-78ce4879be51" data-name="Capa 1"><circle class="aa23e30f-af8d-444a-8bb1-26e8cf293258" cx="252" cy="252" r="252"/><circle class="fe294336-28c8-46b0-b0c8-1bd7b8859598" cx="251.29" cy="251.39" r="225"/><circle class="aa23e30f-af8d-444a-8bb1-26e8cf293258" cx="250.5" cy="252" r="200"/><text class="e6f8e162-8e29-4fb9-adb8-4fc764cdd309" transform="translate(132.21 387.81)">SINCE 1998</text><rect class="fe294336-28c8-46b0-b0c8-1bd7b8859598" x="124.57" y="292.43" width="252.85" height="16.45" rx="3.25"/><path class="fe294336-28c8-46b0-b0c8-1bd7b8859598" d="M127.27,150.54c53.77-14.17,113.08-30.11,122.46-32.63a5,5,0,0,1,2.55,0c9.59,2.54,71.2,18.89,122.47,32.63,4.23,1.14,3.18,6-1.29,6H128.54C124.06,156.54,123,151.66,127.27,150.54Z"/><rect class="fe294336-28c8-46b0-b0c8-1bd7b8859598" x="107" y="317.55" width="288" height="16.45" rx="3.25"/><rect class="fe294336-28c8-46b0-b0c8-1bd7b8859598" x="138.24" y="168.71" width="41" height="109.52"/><rect class="fe294336-28c8-46b0-b0c8-1bd7b8859598" x="199.75" y="168.71" width="41" height="109.52"/><rect class="fe294336-28c8-46b0-b0c8-1bd7b8859598" x="261.25" y="168.71" width="41" height="109.52"/><rect class="fe294336-28c8-46b0-b0c8-1bd7b8859598" x="322.76" y="168.71" width="41" height="109.52"/></g></g></svg>