<svg xmlns="http://www.w3.org/2000/svg" width="504" height="504" viewBox="0 0 504 504"><defs><style>.bbef0b1c-e43a-420a-9799-a07811f7aa19{fill:#01364d;}.a5bfabc9-5ad3-43dc-b55c-2ae42591218d,.ea1fcaa9-35e3-40cf-bd89-70165fc401a6{fill:#fbfbfb;}.f77b66e9-605a-4e4d-88d9-fc85ee6cedb5{fill:#004664;}.a5bfabc9-5ad3-43dc-b55c-2ae42591218d{font-size:39.15px;font-family:Verdana;}</style></defs><g id="bbd6b569-dd45-4559-9ffd-d3b5857fb583" data-name="Capa 2"><g id="e4f6ed07-fd0e-4bf2-a98c-03f98b89f95b" data-name="Capa 1"><circle class="bbef0b1c-e43a-420a-9799-a07811f7aa19" cx="252" cy="252" r="252"/><circle class="ea1fcaa9-35e3-40cf-bd89-70165fc401a6" cx="251.29" cy="251.39" r="225"/><circle class="f77b66e9-605a-4e4d-88d9-fc85ee6cedb5" cx="250.5" cy="252" r="200"/><text class="a5bfabc9-5ad3-43dc-b55c-2ae42591218d" transform="translate(132.21 387.81)">SINCE 1998</text><rect class="ea1fcaa9-35e3-40cf-bd89-70165fc401a6" x="124.57" y="292.43" width="252.85" height="16.45" rx="3.25"/><path class="ea1fcaa9-35e3-40cf-bd89-70165fc401a6" d="M127.27,150.54c53.77-14.17,113.08-30.11,122.46-32.63a5,5,0,0,1,2.55,0c9.59,2.54,71.2,18.89,122.47,32.63,4.23,1.14,3.18,6-1.29,6H128.54C124.06,156.54,123,151.66,127.27,150.54Z"/><rect class="ea1fcaa9-35e3-40cf-bd89-70165fc401a6" x="107" y="317.55" width="288" height="16.45" rx="3.25"/><rect class="ea1fcaa9-35e3-40cf-bd89-70165fc401a6" x="138.24" y="168.71" width="41" height="109.52"/><rect class="ea1fcaa9-35e3-40cf-bd89-70165fc401a6" x="199.75" y="168.71" width="41" height="109.52"/><rect class="ea1fcaa9-35e3-40cf-bd89-70165fc401a6" x="261.25" y="168.71" width="41" height="109.52"/><rect class="ea1fcaa9-35e3-40cf-bd89-70165fc401a6" x="322.76" y="168.71" width="41" height="109.52"/></g></g></svg>